# xmcd
#
# Track frame offsets:
#	150
#	17035
#	31780
#	51057
#	70022
#	85675
#	106655
#	127987
#	157697
#	180070
#	201175
#
# Disc length: 2884 seconds
#
# Revision: 0
# Processed by: cddbd v1.5.2PL0 Copyright (c) Steve Scherf et al.
# Submitted via: EasyCDDAExtractor 11.9.9.666
#
DISCID=6f0b420b
DTITLE=Jenn Adams - Water
DYEAR=1997
DGENRE=Blues
TTITLE0=On The Other Side
TTITLE1=Blue Island
TTITLE2=Angel From Montgomery
TTITLE3=Ain't No Justice
TTITLE4=Song For Penelope
TTITLE5=Road To California
TTITLE6=Take Three
TTITLE7=My Brother's Hands
TTITLE8=Whenever I Like
TTITLE9=East Of Drummond
TTITLE10=Narrow Canyon
EXTD=
EXTT0=
EXTT1=
EXTT2=
EXTT3=
EXTT4=
EXTT5=
EXTT6=
EXTT7=
EXTT8=
EXTT9=
EXTT10=
PLAYORDER=
